# xmcd
#
# Track frame offsets:
#	182
#	20597
#	31280
#	41277
#	50612
#	64875
#	75342
#	88130
#	98660
#	109322
#	119070
#	128127
#	140770
#	154057
#	164240
#	175647
#	187325
#	196322
#	206495
#	216190
#	226940
#	236890
#	249007
#	260035
#	269790
#
# Disc length: 3727
#
# Revision: 3
# Processed by: cddbd v1.5.1PL0 Copyright (c) Steve Scherf et al.
# Submitted via: OrangeCD 5.2
# Normalized: r2:DSETVAR1
#
DISCID=760e8d19
DTITLE=Various Artist - Jiving Jamboree
DYEAR=1995
DGENRE=r&b
TTITLE0=Louis Jordan - Saturday Night Fish Fry
TTITLE1=Clarence Henry - Ain't Got No Home
TTITLE2=Daddy Cleanhead - Something's Goin' On In My Room
TTITLE3=Big Mama Thornton - They Call Me Big Mama
TTITLE4=Joe Liggins - The Honeydripper
TTITLE5=Jesse Belvin - Love, Love Of My Life
TTITLE6=The Cadets - I Want You
TTITLE7=The Hollywood Flames - Buzz, Buzz, Buzz
TTITLE8=Chuck Higgins - Wet Back Hop
TTITLE9=Wynona Carr - Ding Dong Daddy
TTITLE10=Paul Gayten - Music Goes Round And Around
TTITLE11=Eugene Church - Don't Stop Loving Me
TTITLE12=Jimmy Liggins - Night Life Boogie
TTITLE13=The Mills Brothers - Opus One
TTITLE14=Young Jessie - Hit, Git And Split
TTITLE15=Bobby Day - Rockin' Robin
TTITLE16=The Monitors - My Baby's Rockin'
TTITLE17=Etta James - That's All
TTITLE18=Roy Milton and his orchestra - You Got Me Reelin' And Rockin'
TTITLE19=Camille Howard - O Sole Mio Boogie
TTITLE20=The Titans - Free And Easy
TTITLE21=Oscar McLollie and Jeanette Baker - Hey Girl, Hey Boy
TTITLE22=Joe Houston - Rock That Boogie
TTITLE23=TV Slim - Flat Foot Sam
TTITLE24=Dolly Cooper - My Man
EXTD=
EXTT0=
EXTT1=
EXTT2=
EXTT3=
EXTT4=
EXTT5=
EXTT6=
EXTT7=
EXTT8=
EXTT9=
EXTT10=
EXTT11=
EXTT12=
EXTT13=
EXTT14=
EXTT15=
EXTT16=
EXTT17=
EXTT18=
EXTT19=
EXTT20=
EXTT21=
EXTT22=
EXTT23=
EXTT24=
PLAYORDER=
